<svg xmlns="http://www.w3.org/2000/svg" width="33" height="31"><defs><clipPath id="a"><path fill="none" d="m56.525-566.841-2.42 2.415v-12.361A1.215 1.215 0 0 0 52.889-578h-2.554a1.215 1.215 0 0 0-1.216 1.213v12.361l-2.441-2.435a1.594 1.594 0 0 0-2.231-.021l-1.363 1.312a1.585 1.585 0 0 0-.02 2.265l6.593 6.574a2.54 2.54 0 0 0 1.812.724h.129a2.38 2.38 0 0 0 1.84-.722l6.613-6.595a1.584 1.584 0 0 0 0-2.246l-1.272-1.269a1.6 1.6 0 0 0-2.253 0" clip-rule="evenodd" data-name="Caminho 49108"/></clipPath><clipPath id="b"><path fill="none" d="M0 0h819v-611H0Z" data-name="Caminho 49107"/></clipPath><clipPath id="c"><path fill="none" d="M35-547h33v-11.362H35Z" data-name="Caminho 49112"/></clipPath><clipPath id="d"><path fill="none" d="M34-559h34v12H34z" data-name="Retângulo 8259"/></clipPath><clipPath id="e"><path fill="none" d="M63.555-557.355v5.924H39.444v-5.924a1.01 1.01 0 0 0-1.01-1.007h-2.425A1.01 1.01 0 0 0 35-557.355v8.14A2.225 2.225 0 0 0 37.221-547h28.558A2.22 2.22 0 0 0 68-549.215v-8.14a1.01 1.01 0 0 0-1.01-1.007h-2.426a1.01 1.01 0 0 0-1.01 1.007" clip-rule="evenodd" data-name="Caminho 49111"/></clipPath><clipPath id="f"><path fill="none" d="M35-547h33v-12H35Z" data-name="Caminho 49110"/></clipPath></defs><g clip-path="url(#a)" data-name="Grupo 52695" transform="translate(-35 578)"><g clip-path="url(#b)" data-name="Grupo 52694"><path fill="#fff" d="M41.434-579h20.239v24.026H41.434Z" data-name="Caminho 49106"/></g></g><g clip-path="url(#c)" data-name="Grupo 52700" transform="translate(-35 578)"><g data-name="Grupo 52699" style="isolation:isolate"><g clip-path="url(#d)" data-name="Grupo 52698"><g clip-path="url(#e)" data-name="Grupo 52697"><g clip-path="url(#f)" data-name="Grupo 52696"><path fill="#fff" d="M34-559.362h35V-546H34Z" data-name="Caminho 49109"/></g></g></g></g></g></svg>